<svg xmlns="http://www.w3.org/2000/svg" width="1600" height="980" viewBox="0 0 1600 980" fill="none">
  <defs>
    <linearGradient id="bg3" x1="0" y1="0" x2="1600" y2="980" gradientUnits="userSpaceOnUse">
      <stop stop-color="#F6FAFF"/>
      <stop offset="1" stop-color="#EBF2FC"/>
    </linearGradient>
  </defs>
  <rect width="1600" height="980" rx="40" fill="url(#bg3)"/>
  <rect x="80" y="80" width="1440" height="820" rx="30" fill="#FEFEFE" stroke="#C9D8EA" stroke-width="4"/>
  <rect x="120" y="120" width="1440" height="90" rx="18" fill="#003477"/>
  <text x="170" y="178" fill="#FEFEFE" font-family="Arial, sans-serif" font-size="34" font-weight="700">
    API Contract Guard - Dashboard Overview
  </text>
  <rect x="140" y="240" width="330" height="180" rx="18" fill="#F4F8FF" stroke="#9FB6D1" stroke-width="2"/>
  <text x="175" y="320" fill="#003477" font-family="Arial, sans-serif" font-size="30" font-weight="700">Services</text>
  <text x="175" y="380" fill="#002451" font-family="Arial, sans-serif" font-size="54" font-weight="700">12</text>
  <rect x="490" y="240" width="330" height="180" rx="18" fill="#F4F8FF" stroke="#9FB6D1" stroke-width="2"/>
  <text x="525" y="320" fill="#003477" font-family="Arial, sans-serif" font-size="30" font-weight="700">Checks (7d)</text>
  <text x="525" y="380" fill="#002451" font-family="Arial, sans-serif" font-size="54" font-weight="700">142</text>
  <rect x="840" y="240" width="330" height="180" rx="18" fill="#FFEFE9" stroke="#F2541E" stroke-width="2"/>
  <text x="875" y="320" fill="#B73B12" font-family="Arial, sans-serif" font-size="30" font-weight="700">Failing checks</text>
  <text x="875" y="380" fill="#B73B12" font-family="Arial, sans-serif" font-size="54" font-weight="700">5</text>
  <rect x="1190" y="240" width="290" height="180" rx="18" fill="#F4F8FF" stroke="#9FB6D1" stroke-width="2"/>
  <text x="1225" y="320" fill="#003477" font-family="Arial, sans-serif" font-size="30" font-weight="700">Repos</text>
  <text x="1225" y="380" fill="#002451" font-family="Arial, sans-serif" font-size="54" font-weight="700">28</text>
  <rect x="140" y="450" width="1340" height="180" rx="18" fill="#FFFFFF" stroke="#C9D8EA" stroke-width="2"/>
  <text x="180" y="520" fill="#003477" font-family="Arial, sans-serif" font-size="32" font-weight="700">
    Setup wizard progress
  </text>
  <rect x="180" y="548" width="1240" height="36" rx="10" fill="#E7EEF8"/>
  <rect x="180" y="548" width="870" height="36" rx="10" fill="#003477"/>
  <text x="1100" y="575" fill="#003477" font-family="Arial, sans-serif" font-size="24" font-weight="700">70% complete</text>
  <rect x="140" y="660" width="780" height="210" rx="18" fill="#FFFFFF" stroke="#C9D8EA" stroke-width="2"/>
  <text x="180" y="730" fill="#003477" font-family="Arial, sans-serif" font-size="32" font-weight="700">
    Recent check activity
  </text>
  <rect x="960" y="660" width="520" height="210" rx="18" fill="#FFFFFF" stroke="#C9D8EA" stroke-width="2"/>
  <text x="1000" y="730" fill="#003477" font-family="Arial, sans-serif" font-size="32" font-weight="700">
    Attention needed
  </text>
</svg>

