<svg xmlns="http://www.w3.org/2000/svg" width="1600" height="980" viewBox="0 0 1600 980" fill="none">
  <defs>
    <linearGradient id="bg2" x1="0" y1="0" x2="1600" y2="980" gradientUnits="userSpaceOnUse">
      <stop stop-color="#F8FBFF"/>
      <stop offset="1" stop-color="#EEF4FC"/>
    </linearGradient>
  </defs>
  <rect width="1600" height="980" rx="40" fill="url(#bg2)"/>
  <rect x="90" y="90" width="1420" height="800" rx="28" fill="#FEFEFE" stroke="#C9D8EA" stroke-width="4"/>
  <rect x="130" y="130" width="350" height="720" rx="20" fill="#F1F6FF" stroke="#D8E4F2" stroke-width="2"/>
  <text x="170" y="200" fill="#003477" font-family="Arial, sans-serif" font-size="34" font-weight="700">
    Policy Sets
  </text>
  <rect x="160" y="240" width="290" height="88" rx="14" fill="#003477"/>
  <text x="200" y="294" fill="#FEFEFE" font-family="Arial, sans-serif" font-size="30" font-weight="700">
    Org Default
  </text>
  <rect x="160" y="350" width="290" height="88" rx="14" fill="#FFFFFF" stroke="#9FB6D1" stroke-width="2"/>
  <text x="200" y="404" fill="#345171" font-family="Arial, sans-serif" font-size="30" font-weight="700">
    Payments API
  </text>
  <rect x="530" y="130" width="940" height="130" rx="18" fill="#002A5B"/>
  <text x="580" y="208" fill="#FEFEFE" font-family="Arial, sans-serif" font-size="40" font-weight="700">
    Policy Editor - Breaking Change Rules
  </text>
  <rect x="530" y="290" width="940" height="160" rx="16" fill="#F4F8FF" stroke="#9FB6D1" stroke-width="2"/>
  <text x="572" y="360" fill="#003477" font-family="Arial, sans-serif" font-size="34" font-weight="700">
    Block removed endpoints
  </text>
  <circle cx="1410" cy="370" r="26" fill="#F2541E"/>
  <text x="1400" y="380" fill="#FEFEFE" font-family="Arial, sans-serif" font-size="30" font-weight="700">
    ✓
  </text>
  <rect x="530" y="480" width="940" height="160" rx="16" fill="#F4F8FF" stroke="#9FB6D1" stroke-width="2"/>
  <text x="572" y="550" fill="#003477" font-family="Arial, sans-serif" font-size="34" font-weight="700">
    Block required field additions
  </text>
  <circle cx="1410" cy="560" r="26" fill="#F2541E"/>
  <text x="1400" y="570" fill="#FEFEFE" font-family="Arial, sans-serif" font-size="30" font-weight="700">
    ✓
  </text>
  <rect x="530" y="690" width="420" height="120" rx="18" fill="#003477"/>
  <text x="620" y="764" fill="#FEFEFE" font-family="Arial, sans-serif" font-size="36" font-weight="700">
    Save policy
  </text>
  <rect x="980" y="690" width="490" height="120" rx="18" fill="#FFFFFF" stroke="#9FB6D1" stroke-width="3"/>
  <text x="1060" y="764" fill="#003477" font-family="Arial, sans-serif" font-size="36" font-weight="700">
    Add override
  </text>
</svg>

