<svg xmlns="http://www.w3.org/2000/svg" width="1600" height="980" viewBox="0 0 1600 980" fill="none">
  <defs>
    <linearGradient id="bg" x1="0" y1="0" x2="1600" y2="980" gradientUnits="userSpaceOnUse">
      <stop stop-color="#F5F9FF"/>
      <stop offset="1" stop-color="#E8F0FB"/>
    </linearGradient>
    <linearGradient id="head" x1="0" y1="0" x2="1600" y2="0" gradientUnits="userSpaceOnUse">
      <stop stop-color="#003477"/>
      <stop offset="1" stop-color="#002451"/>
    </linearGradient>
  </defs>
  <rect width="1600" height="980" rx="40" fill="url(#bg)"/>
  <rect x="80" y="80" width="1440" height="100" rx="22" fill="url(#head)"/>
  <text x="140" y="144" fill="#FEFEFE" font-family="Arial, sans-serif" font-size="36" font-weight="700">
    Pull Request #428 - contract-update
  </text>
  <rect x="120" y="230" width="1360" height="620" rx="26" fill="#FEFEFE" stroke="#C9D8EA" stroke-width="4"/>
  <rect x="160" y="280" width="1280" height="84" rx="16" fill="#FFE9E1" stroke="#F2541E" stroke-width="3"/>
  <text x="196" y="333" fill="#B73B12" font-family="Arial, sans-serif" font-size="34" font-weight="700">
    API Contract Guard - Breaking change detected
  </text>
  <rect x="160" y="392" width="620" height="120" rx="16" fill="#F4F8FF" stroke="#9FB6D1" stroke-width="2"/>
  <text x="190" y="450" fill="#003477" font-family="Arial, sans-serif" font-size="30" font-weight="700">
    Removed path: /v1/orders/{id}
  </text>
  <rect x="820" y="392" width="620" height="120" rx="16" fill="#F4F8FF" stroke="#9FB6D1" stroke-width="2"/>
  <text x="850" y="450" fill="#003477" font-family="Arial, sans-serif" font-size="30" font-weight="700">
    Required field added: customerType
  </text>
  <rect x="160" y="540" width="1280" height="90" rx="16" fill="#EAF2FF"/>
  <text x="190" y="596" fill="#345171" font-family="Arial, sans-serif" font-size="30">
    Rule applied: block-breaking-openapi-changes
  </text>
  <rect x="160" y="660" width="400" height="120" rx="18" fill="#003477"/>
  <text x="228" y="732" fill="#FEFEFE" font-family="Arial, sans-serif" font-size="36" font-weight="700">
    Merge blocked
  </text>
  <rect x="590" y="660" width="460" height="120" rx="18" fill="#FFFFFF" stroke="#9FB6D1" stroke-width="3"/>
  <text x="650" y="732" fill="#003477" font-family="Arial, sans-serif" font-size="36" font-weight="700">
    View full diff
  </text>
</svg>

